PathFileType	4	(X/Y/Z)	TVC_26_BWA4_walk_RCNL2025.trc
DataRate	CameraRate	NumFrames	NumMarkers	Units	OrigDataRate	OrigDataStartFrame	OrigNumFrames
100	100	7	27	mm	100	312	415
Frame#	Time	R_Shoulder			L_Shoulder			C7			J_Notch			R_Elbow			L_Elbow			R_Wrist			L_Wrist			R_Asis			L_Asis			R_Psis			L_Psis			Sacral			Thoracic			Sternum			R_Thigh_Lateral			R_Knee_Lateral			R_Shank_Lateral			R_Ankle_Lateral			R_Heel			R_Toe			L_Thigh_Lateral			L_Knee_Lateral			L_Shank_Lateral			L_Ankle_Lateral			L_Heel			L_Toe		
		X1	Y1	Z1	X2	Y2	Z2	X3	Y3	Z3	X4	Y4	Z4	X5	Y5	Z5	X6	Y6	Z6	X7	Y7	Z7	X8	Y8	Z8	X9	Y9	Z9	X10	Y10	Z10	X11	Y11	Z11	X12	Y12	Z12	X13	Y13	Z13	X14	Y14	Z14	X15	Y15	Z15	X16	Y16	Z16	X17	Y17	Z17	X18	Y18	Z18	X19	Y19	Z19	X20	Y20	Z20	X21	Y21	Z21	X22	Y22	Z22	X23	Y23	Z23	X24	Y24	Z24	X25	Y25	Z25	X26	Y26	Z26	X27	Y27	Z27
312	3.11000000	860.721375	1360.080811	-428.669159	823.831665	1365.201294	-746.552734	768.846191	1400.098633	-573.354370	917.320129	1305.788330	-586.969421	856.081787	1024.959839	-298.756561	776.174255	1043.315674	-857.896118	922.742706	823.851318	-255.558563	920.616577	868.149536	-835.735901	941.178345	959.679199	-416.759979	924.706482	951.323242	-707.084778	724.045349	951.449463	-475.397034	719.220703	944.854858	-621.790710	721.633026	948.152161	-548.593872	711.420471	1120.416748	-567.022766	970.775085	1069.302490	-593.582520	1024.117798	593.799133	-374.409912	1095.660278	494.598297	-439.814636	1093.091309	315.015900	-393.876556	1080.332642	111.537430	-454.319244	1030.042603	88.778984	-499.885559	1213.483887	94.299377	-487.140839	915.507202	576.520752	-727.357788	895.341675	460.169891	-649.882324	840.447266	243.831436	-667.563965	789.477478	65.161491	-573.634827	747.521423	54.910431	-514.879578	925.414856	40.630737	-575.892029
313	3.12000000	865.118042	1359.767944	-429.584869	828.524780	1364.894287	-747.539368	773.445129	1399.845947	-574.368652	921.849792	1305.438965	-587.873047	858.520569	1024.774292	-299.487274	780.664368	1042.865234	-858.664734	923.115997	823.198547	-255.362236	924.868561	867.619446	-835.878204	945.585327	959.277893	-417.773560	928.830505	950.996399	-708.270874	728.441895	951.229431	-476.325531	723.472656	944.651001	-622.699402	725.957275	947.940216	-549.512466	715.837830	1120.201904	-568.117493	975.157776	1068.898926	-594.463867	1028.498047	593.339722	-375.986633	1099.565918	494.133667	-442.257812	1099.457764	314.389404	-396.572937	1091.087891	110.784714	-457.831787	1041.165039	87.165543	-503.474945	1224.440552	95.946640	-490.688721	918.065063	575.951721	-727.859375	897.095459	459.730011	-650.224609	841.049072	243.705643	-667.809204	789.593506	65.204308	-573.628845	747.599792	55.068661	-514.811218	925.455200	40.580982	-575.903687
314	3.13000000	869.555786	1359.418335	-430.468323	833.224121	1364.543945	-748.489136	778.065979	1399.544922	-575.339478	926.405701	1305.053345	-588.748840	861.076477	1024.551758	-300.216064	785.195251	1042.356689	-859.369324	923.609100	822.528137	-255.187080	929.158691	867.044128	-835.931946	950.072021	958.832214	-418.787323	932.952515	950.650635	-709.508850	732.907043	950.963257	-477.209686	727.766541	944.405273	-623.559082	730.336792	947.684265	-550.384384	720.294312	1119.942871	-569.154053	979.581177	1068.471191	-595.335083	1032.995850	592.831482	-377.517822	1103.426514	493.598999	-444.589294	1105.279175	313.706329	-399.140503	1100.992188	110.127014	-461.282501	1051.420532	85.775749	-507.032745	1234.494507	97.312752	-494.075958	920.815308	575.357849	-728.322693	898.950378	459.264038	-650.537231	841.731628	243.589264	-668.046143	789.711853	65.255280	-573.614685	747.677246	55.234737	-514.735596	925.499451	40.532490	-575.912048
315	3.14000000	874.035217	1359.032471	-431.320557	837.930725	1364.149780	-749.403503	782.710266	1399.195557	-576.268433	930.989624	1304.631470	-589.597839	863.752319	1024.291016	-300.942902	789.765747	1041.791260	-860.010742	924.233154	821.841339	-255.033096	933.489685	866.425507	-835.904816	954.634521	958.346741	-419.801208	937.087830	950.281006	-710.782837	737.439087	950.651489	-478.054657	732.107910	944.118774	-624.375977	734.773499	947.385132	-551.215317	724.791870	1119.639038	-570.133423	984.049072	1068.022095	-596.196533	1037.554199	592.250732	-379.030487	1107.249512	492.995972	-446.812683	1110.611206	312.950836	-401.598846	1110.031372	109.519646	-464.671448	1060.789307	84.571869	-510.555206	1243.652222	98.352600	-497.317810	923.739075	574.742432	-728.748596	900.898071	458.775360	-650.820984	842.507507	243.474625	-668.271179	789.830444	65.313889	-573.593994	747.755249	55.409145	-514.658813	925.545593	40.486675	-575.918091
316	3.15000000	878.557190	1358.610596	-432.142609	842.645935	1363.711670	-750.283875	787.379639	1398.797119	-577.156982	935.603516	1304.173218	-590.420959	866.549988	1023.991089	-301.667542	794.374268	1041.170166	-860.590576	924.999115	821.139282	-254.899605	937.865051	865.766541	-835.804657	959.268494	957.825867	-420.814331	941.252075	949.883972	-712.075195	742.036316	950.294739	-478.865662	736.502380	943.791809	-625.156921	739.269348	947.043274	-552.011292	729.332703	1119.289795	-571.057678	988.565063	1067.553467	-597.049072	1042.084229	591.574585	-380.547699	1111.042603	492.325012	-448.933289	1115.515259	312.111511	-403.970581	1118.199463	108.917999	-468.000977	1069.262939	83.512611	-514.041138	1251.925659	99.033562	-500.429657	926.809326	574.110291	-729.140686	902.927002	458.268799	-651.079895	843.377808	243.353745	-668.476624	789.947327	65.379601	-573.568848	747.835876	55.593555	-514.587219	925.591858	40.444992	-575.922913
317	3.16000000	883.122437	1358.152100	-432.935516	847.371460	1363.229370	-751.131836	792.075806	1398.349487	-578.006836	940.249390	1303.678711	-591.219421	869.470825	1023.650330	-302.389374	799.018799	1040.495239	-861.111145	925.917847	820.423004	-254.785294	942.288513	865.070709	-835.639221	963.969482	957.273376	-421.824860	945.460815	949.457458	-713.367615	746.697021	949.893433	-479.647675	740.955688	943.424194	-625.908997	743.826355	946.658813	-552.778336	733.919373	1118.894043	-571.929504	993.132629	1067.066528	-597.893677	1046.491333	590.782471	-382.085907	1114.812012	491.583893	-450.957703	1120.053955	311.179962	-406.278564	1125.499756	108.279228	-471.274811	1076.843384	82.554390	-517.491272	1259.332031	99.335472	-503.427490	929.994751	573.467041	-729.505127	905.023926	457.749847	-651.320984	844.331116	243.219711	-668.651550	790.060791	65.451889	-573.541565	747.921448	55.790752	-514.526428	925.636841	40.408752	-575.927734
318	3.17000000	887.732117	1357.656250	-433.700378	852.109253	1362.703369	-751.949036	796.800354	1397.852173	-578.819763	944.929626	1303.147705	-591.994324	872.515503	1023.267212	-303.107574	803.697205	1039.768555	-861.575500	926.999786	819.693207	-254.688271	946.763733	864.341797	-835.416473	968.733521	956.692566	-422.830078	949.729126	949.000488	-714.642273	751.419556	949.448120	-480.405579	745.473816	943.014709	-626.638977	748.446686	946.231415	-553.522278	738.554382	1118.450439	-572.752563	997.754822	1066.561646	-598.731262	1050.699219	589.857605	-383.652496	1118.560181	490.766663	-452.893311	1124.284912	310.148743	-408.543121	1131.944580	107.563751	-474.497375	1083.542969	81.652710	-520.907227	1265.893555	99.249786	-506.327576	933.263245	572.818298	-729.848999	907.174805	457.223694	-651.552185	845.345337	243.067825	-668.784546	790.169128	65.530258	-573.514160	748.013794	56.004246	-514.480530	925.679749	40.379074	-575.933594
